<?xml version="1.0" encoding="utf-8"?>
<!-- Generator: Adobe Illustrator 23.0.0, SVG Export Plug-In . SVG Version: 6.00 Build 0)  -->
<svg version="1.1" id="Capa_1" xmlns="http://www.w3.org/2000/svg" xmlns:xlink="http://www.w3.org/1999/xlink" x="0px" y="0px"
	 viewBox="0 0 512 512" style="enable-background:new 0 0 512 512;" xml:space="preserve">
<style type="text/css">
	.st0{fill:#FFFFFF;}
</style>
<path class="st0" d="M504,275.1c0-3.4-2.1-6.4-5.3-7.5L384,225.9V92.2h-0.3c1.2-4-1-8.3-5-9.7l-120-43.6c-1.8-0.7-3.7-0.7-5.5,0
	l-120,43.6c-2.6,0.9-4.5,3.1-5.1,5.8H128v137.5L13.3,267.6c-2.6,0.9-4.5,3.1-5.1,5.8H8v141.8h0.2c-0.9,3.9,1.3,7.9,5.1,9.3l120,43.6
	c1.8,0.7,3.7,0.7,5.5,0L256,425.4l117.3,42.6c1.8,0.7,3.7,0.7,5.5,0l120-43.6c2.4-0.9,4.3-2.9,5-5.4h0.3V277.2
	C504,277.2,504,275.8,504,275.1L504,275.1z M128,449.1L24,411.3V286.5l104,37.8V449.1z M136,310.2l-96.6-35.1l96-34.9l96.6,35.1
	L136,310.2z M248,411.3l-104,37.8V324.3l104-37.8V411.3z M248,263.7l-104-37.8V101.5l104,37.8V263.7z M159.4,90.1L256,55l96.6,35.1
	L256,125.2L159.4,90.1z M368,101.5v124.3l-104,37.8V139.3L368,101.5z M368,449.1l-104-37.8V286.5l104,37.8V449.1z M376,310.2
	l-96-34.9l96.6-35.1l96,34.9L376,310.2z M488,411.3l-104,37.8V324.3l104-37.8V411.3z"/>
</svg>
