<?xml version="1.0" encoding="utf-8"?>
<!-- Generator: Adobe Illustrator 23.0.0, SVG Export Plug-In . SVG Version: 6.00 Build 0)  -->
<svg version="1.1" id="Capa_1" xmlns="http://www.w3.org/2000/svg" xmlns:xlink="http://www.w3.org/1999/xlink" x="0px" y="0px"
	 viewBox="0 0 512 512" style="enable-background:new 0 0 512 512;" xml:space="preserve">
<g>
	<path d="M66.9,338.1l58.6,163.1c1.9,5.1,6.7,8.3,11.9,8.3c1.4,0,2.9-0.2,4.3-0.8l76.7-27.6l174.1-62.6l33.3-5.7h73.5
		c7.1,0,12.8-5.8,12.8-12.9v-327c0-4.5-2.4-6.8-4.2-8.5l0,0C507.5,64.3,447.3,7,447.3,7c-2.3-2.2-4.7-4.5-9.1-4.5H196.1
		c-7.1,0-12.8,5.8-12.8,12.8v39.4L97.9,69.3c-6.8,1.2-11.4,7.7-10.3,14.6l4.3,25.3c-27.7,9.3-56.2,19-83.7,28.8
		c-6.5,2.4-9.9,9.6-7.6,16.1l54.7,152L66.9,338.1z M69.5,301.1L15.7,151.3c25.9-9.3,52.7-18.3,78.9-27.2l25.8,150.2l29.7,173
		c1.1,6.1,6.4,10.5,12.5,10.5c0.7,0,1.4-0.1,2.1-0.2l80.3-13.8l62.8-10.8l-94.4,33.9l-74.4,26.8L81,333L69.5,301.1z M487.9,66.4
		h-37.5l-0.9,0c-1.8,0-6,0-7.1-1c-0.2-0.2-0.5-1.1-0.5-2.6l-0.1-40.4L487.9,66.4z M198.3,216.9V17.5h228.5l0.1,45.3
		c0,5.5,1.7,9.9,5,13.2c5.1,5,12.2,5.4,16.7,5.4c0.4,0,0.7,0,1.1,0l47.4,0v316.5H198.3V251.7L198.3,216.9z M183.3,251.7v148.3
		c0,7.1,5.8,12.9,12.8,12.9h140.8l-94.5,16.2l-78,13.4l-29.2-170.7L102.9,83.7l80.4-13.8v147L183.3,251.7z"/>
	<path d="M234.4,118.9c0,4.1,3.4,7.5,7.5,7.5h214.4c4.1,0,7.5-3.4,7.5-7.5s-3.4-7.5-7.5-7.5H241.9
		C237.8,111.4,234.4,114.8,234.4,118.9z"/>
	<path d="M456.4,164.7H241.9c-4.1,0-7.5,3.4-7.5,7.5s3.4,7.5,7.5,7.5h214.4c4.1,0,7.5-3.4,7.5-7.5S460.5,164.7,456.4,164.7z"/>
	<path d="M456.4,218H241.9c-4.1,0-7.5,3.4-7.5,7.5s3.4,7.5,7.5,7.5h214.4c4.1,0,7.5-3.4,7.5-7.5S460.5,218,456.4,218z"/>
	<path d="M456.4,271.3H241.9c-4.1,0-7.5,3.4-7.5,7.5s3.4,7.5,7.5,7.5h214.4c4.1,0,7.5-3.4,7.5-7.5S460.5,271.3,456.4,271.3z"/>
	<path d="M456.4,324.6H241.9c-4.1,0-7.5,3.4-7.5,7.5s3.4,7.5,7.5,7.5h214.4c4.1,0,7.5-3.4,7.5-7.5S460.5,324.6,456.4,324.6z"/>
</g>
</svg>
