<svg id="Capa_1" enable-background="new 0 0 512 512" height="512" viewBox="0 0 512 512" width="512" xmlns="http://www.w3.org/2000/svg"><g><path d="m281.941 166.464h46.067c5.523 0 10-4.477 10-10v-46.144c0-5.523-4.477-10-10-10h-46.067c-5.523 0-10 4.477-10 10v46.144c0 5.523 4.477 10 10 10zm10-46.143h26.067v26.144h-26.067z"/><path d="m191.212 166.464h46.067c5.523 0 10-4.477 10-10v-46.144c0-5.523-4.477-10-10-10h-46.067c-5.523 0-10 4.477-10 10v46.144c0 5.523 4.477 10 10 10zm10-46.143h26.067v26.144h-26.067z"/><path d="m281.941 268.043h46.067c5.523 0 10-4.477 10-10v-46.143c0-5.523-4.477-10-10-10h-46.067c-5.523 0-10 4.477-10 10v46.143c0 5.522 4.477 10 10 10zm10-46.144h26.067v26.143h-26.067z"/><path d="m191.212 268.043h46.067c5.523 0 10-4.477 10-10v-46.143c0-5.523-4.477-10-10-10h-46.067c-5.523 0-10 4.477-10 10v46.143c0 5.522 4.477 10 10 10zm10-46.144h26.067v26.143h-26.067z"/><path d="m281.941 369.621h46.067c5.523 0 10-4.477 10-10v-46.144c0-5.523-4.477-10-10-10h-46.067c-5.523 0-10 4.477-10 10v46.144c0 5.523 4.477 10 10 10zm10-46.143h26.067v26.144h-26.067z"/><path d="m237.279 369.621c5.523 0 10-4.477 10-10v-46.144c0-5.523-4.477-10-10-10h-46.067c-5.523 0-10 4.477-10 10v46.144c0 5.523 4.477 10 10 10zm-36.067-46.143h26.067v26.144h-26.067z"/><path d="m463.95 492h-9.298v-302.052c0-5.523-4.477-10-10-10h-65.152v-123.991c0-5.523-4.477-10-10-10h-21.306v-35.957c0-5.523-4.477-10-10-10h-157.168c-5.523 0-10 4.477-10 10v35.957h-21.305c-5.523 0-10 4.477-10 10v192.461h-54.868c-5.523 0-10 4.477-10 10v233.582h-26.803c-5.523 0-10 4.477-10 10s4.477 10 10 10h415.9c5.523 0 10-4.477 10-10s-4.477-10-10-10zm-272.924-472h137.167v25.957h-137.167zm-96.173 248.418h44.868v223.582h-44.868zm64.868-202.461h199.779v426.043h-49.78v-65.978c0-5.523-4.477-10-10-10h-80.22c-5.523 0-10 4.477-10 10v65.978h-49.779zm69.78 426.043v-55.978h60.22v55.978zm149.999 0v-292.052h55.152v292.052z"/></g></svg>