<?xml version="1.0" encoding="utf-8"?>
<!-- Generator: Adobe Illustrator 23.0.0, SVG Export Plug-In . SVG Version: 6.00 Build 0)  -->
<svg version="1.1" id="Capa_1" xmlns="http://www.w3.org/2000/svg" xmlns:xlink="http://www.w3.org/1999/xlink" x="0px" y="0px"
	 viewBox="0 0 512 512" style="enable-background:new 0 0 512 512;" xml:space="preserve">
<style type="text/css">
	.st0{fill:#FFFFFF;}
</style>
<g>
	<path class="st0" d="M281.9,166.5H328c5.5,0,10-4.5,10-10v-46.1c0-5.5-4.5-10-10-10h-46.1c-5.5,0-10,4.5-10,10v46.1
		C271.9,162,276.4,166.5,281.9,166.5L281.9,166.5z M291.9,120.3H318v26.1h-26.1V120.3z"/>
	<path class="st0" d="M191.2,166.5h46.1c5.5,0,10-4.5,10-10v-46.1c0-5.5-4.5-10-10-10h-46.1c-5.5,0-10,4.5-10,10v46.1
		C181.2,162,185.7,166.5,191.2,166.5z M201.2,120.3h26.1v26.1h-26.1V120.3z"/>
	<path class="st0" d="M281.9,268H328c5.5,0,10-4.5,10-10v-46.1c0-5.5-4.5-10-10-10h-46.1c-5.5,0-10,4.5-10,10V258
		C271.9,263.6,276.4,268,281.9,268L281.9,268z M291.9,221.9H318V248h-26.1V221.9z"/>
	<path class="st0" d="M191.2,268h46.1c5.5,0,10-4.5,10-10v-46.1c0-5.5-4.5-10-10-10h-46.1c-5.5,0-10,4.5-10,10V258
		C181.2,263.6,185.7,268,191.2,268z M201.2,221.9h26.1V248h-26.1V221.9z"/>
	<path class="st0" d="M281.9,369.6H328c5.5,0,10-4.5,10-10v-46.1c0-5.5-4.5-10-10-10h-46.1c-5.5,0-10,4.5-10,10v46.1
		C271.9,365.1,276.4,369.6,281.9,369.6L281.9,369.6z M291.9,323.5H318v26.1h-26.1V323.5z"/>
	<path class="st0" d="M237.3,369.6c5.5,0,10-4.5,10-10v-46.1c0-5.5-4.5-10-10-10h-46.1c-5.5,0-10,4.5-10,10v46.1c0,5.5,4.5,10,10,10
		H237.3z M201.2,323.5h26.1v26.1h-26.1V323.5z"/>
	<path class="st0" d="M464,492h-9.3V189.9c0-5.5-4.5-10-10-10h-65.2V56c0-5.5-4.5-10-10-10h-21.3V10c0-5.5-4.5-10-10-10H181
		c-5.5,0-10,4.5-10,10v36h-21.3c-5.5,0-10,4.5-10,10v192.5H84.9c-5.5,0-10,4.5-10,10V492H48.1c-5.5,0-10,4.5-10,10s4.5,10,10,10H464
		c5.5,0,10-4.5,10-10S469.5,492,464,492z M191,20h137.2v26H191L191,20z M94.9,268.4h44.9V492H94.9L94.9,268.4z M159.7,66h199.8v426
		h-49.8v-66c0-5.5-4.5-10-10-10h-80.2c-5.5,0-10,4.5-10,10v66h-49.8V66z M229.5,492v-56h60.2v56H229.5z M379.5,492V199.9h55.2V492
		H379.5z"/>
</g>
</svg>
