<?xml version="1.0" encoding="utf-8"?>
<!-- Generator: Adobe Illustrator 23.0.0, SVG Export Plug-In . SVG Version: 6.00 Build 0)  -->
<svg version="1.1" id="Icons" xmlns="http://www.w3.org/2000/svg" xmlns:xlink="http://www.w3.org/1999/xlink" x="0px" y="0px"
	 viewBox="0 0 512 512" style="enable-background:new 0 0 512 512;" xml:space="preserve">
<style type="text/css">
	.st0{fill:#B5179E;}
</style>
<path class="st0" d="M435.9,498.2H76.1c-3.8,0-6.9-3.1-6.9-6.9V20.8c0-3.8,3.1-6.9,6.9-6.9h359.8c3.8,0,6.9,3.1,6.9,6.9v470.5
	C442.8,495.1,439.7,498.2,435.9,498.2z M83,484.3H429V27.7H83V484.3z"/>
<path class="st0" d="M382.7,109.2H129.3c-3.8,0-6.9-3.1-6.9-6.9c0-3.8,3.1-6.9,6.9-6.9h253.4c3.8,0,6.9,3.1,6.9,6.9
	C389.6,106.1,386.5,109.2,382.7,109.2z"/>
<path class="st0" d="M382.7,178.9H129.3c-3.8,0-6.9-3.1-6.9-6.9s3.1-6.9,6.9-6.9h253.4c3.8,0,6.9,3.1,6.9,6.9
	S386.5,178.9,382.7,178.9z"/>
<path class="st0" d="M382.7,248.6H129.3c-3.8,0-6.9-3.1-6.9-6.9s3.1-6.9,6.9-6.9h253.4c3.8,0,6.9,3.1,6.9,6.9
	S386.5,248.6,382.7,248.6z"/>
<path class="st0" d="M382.7,318.3H129.3c-3.8,0-6.9-3.1-6.9-6.9c0-3.8,3.1-6.9,6.9-6.9h253.4c3.8,0,6.9,3.1,6.9,6.9
	C389.6,315.2,386.5,318.3,382.7,318.3z"/>
<path class="st0" d="M225.7,440.7c-1.4,0-2.8-0.2-4.2-0.5c-6.4-1.4-11.5-6.2-13.3-12.5l-2.4-7.7l-13.4,11.9
	c-6.1,5.6-14.3,8.4-22.6,7.8c-6.3-0.4-12.1-3.5-15.9-8.5c-8.9,3.3-18.1,5.7-27.4,7.1c-3.8,0.5-7.3-2.1-7.8-5.9
	c-0.5-3.8,2.1-7.3,5.9-7.8c0,0,0,0,0.1,0c8.1-1.3,16.1-3.4,23.8-6.1c-0.4-2.3-0.6-4.6-0.5-6.9c1-13.4,8.1-25.6,19.3-33.1
	c7-4.7,16.5-2.8,21.2,4.2c1.8,2.7,2.7,5.9,2.6,9.2c-0.6,15.5-11.1,26-23.4,33.1c1.1,0.6,2.4,1,3.7,1.1c4.5,0.2,8.8-1.4,12.1-4.4
	l13.4-11.8c5.8-5,14.5-4.4,19.5,1.3c1.3,1.4,2.2,3.1,2.8,5l2.4,7.7c0.7,2.4,3.2,3.7,5.6,3c0.7-0.2,1.4-0.6,1.9-1.2l12.1-12.8
	c6.7-7.1,17.9-7.4,25-0.7c3.2,3,5.2,7.1,5.5,11.5l0.1,1.6c0.3,3.8-2.6,7.1-6.4,7.4c-3.8,0.3-7.1-2.6-7.4-6.3l-0.1-1.6
	c-0.1-2.1-2-3.7-4.1-3.5c-1,0.1-1.9,0.5-2.5,1.2l-12.1,12.8C235.5,438.6,230.7,440.7,225.7,440.7L225.7,440.7z M175.6,389.6
	c-0.3,0-0.6,0.1-0.8,0.3c-7.6,5-12.4,13.2-13.1,22.3c8.4-3.9,14.2-11.8,15.4-21c0-0.6-0.3-1.1-0.8-1.4
	C176.1,389.7,175.9,389.6,175.6,389.6L175.6,389.6z"/>
<path class="st0" d="M387.5,429H335c-3.8,0-6.9-3.1-6.9-6.9c0-3.8,3.1-6.9,6.9-6.9h52.5c3.8,0,6.9,3.1,6.9,6.9
	C394.4,425.9,391.3,429,387.5,429z"/>
</svg>
