<svg id="Icons" height="512" viewBox="0 0 74 74" width="512" xmlns="http://www.w3.org/2000/svg"><path d="m63 72h-52a1 1 0 0 1 -1-1v-68a1 1 0 0 1 1-1h52a1 1 0 0 1 1 1v68a1 1 0 0 1 -1 1zm-51-2h50v-66h-50z"/><path d="m55.312 15.778h-36.624a1 1 0 0 1 0-2h36.624a1 1 0 0 1 0 2z"/><path d="m55.312 25.852h-36.624a1 1 0 0 1 0-2h36.624a1 1 0 0 1 0 2z"/><path d="m55.312 35.926h-36.624a1 1 0 0 1 0-2h36.624a1 1 0 0 1 0 2z"/><path d="m55.312 46h-36.624a1 1 0 0 1 0-2h36.624a1 1 0 0 1 0 2z"/><path d="m32.619 63.69a2.669 2.669 0 0 1 -.612-.071 2.621 2.621 0 0 1 -1.929-1.8l-.346-1.119-1.932 1.716a4.367 4.367 0 0 1 -3.268 1.131 3.189 3.189 0 0 1 -2.3-1.231 19.467 19.467 0 0 1 -3.962 1.019 1 1 0 1 1 -.26-1.983 19.029 19.029 0 0 0 3.435-.887 4.64 4.64 0 0 1 -.077-1 6.324 6.324 0 0 1 2.785-4.782 2.209 2.209 0 0 1 3.438 1.93c-.084 2.238-1.6 3.761-3.388 4.784a1.4 1.4 0 0 0 .528.155 2.346 2.346 0 0 0 1.746-.642l1.941-1.71a2 2 0 0 1 3.225.909l.345 1.118a.647.647 0 0 0 1.089.253l1.753-1.855a2.551 2.551 0 0 1 4.4 1.56l.018.225a1 1 0 0 1 -1.994.154l-.018-.226a.551.551 0 0 0 -.952-.338l-1.753 1.855a2.62 2.62 0 0 1 -1.912.835zm-7.233-7.379a.2.2 0 0 0 -.118.04 4.289 4.289 0 0 0 -1.9 3.223 3.882 3.882 0 0 0 2.227-3.032.21.21 0 0 0 -.11-.2.2.2 0 0 0 -.099-.031z"/><path d="m56 62h-7.583a1 1 0 0 1 0-2h7.583a1 1 0 0 1 0 2z"/></svg>