<?xml version="1.0" encoding="utf-8"?>
<!-- Generator: Adobe Illustrator 23.0.0, SVG Export Plug-In . SVG Version: 6.00 Build 0)  -->
<svg version="1.1" id="Layer_1" xmlns="http://www.w3.org/2000/svg" xmlns:xlink="http://www.w3.org/1999/xlink" x="0px" y="0px"
	 viewBox="0 0 2000 2000" style="enable-background:new 0 0 2000 2000;" xml:space="preserve">
<style type="text/css">
	.st0{fill:#3A0CA3;}
	.st1{fill:url(#SVGID_1_);}
	.st2{fill:url(#SVGID_2_);}
	.st3{fill:url(#SVGID_3_);}
	.st4{opacity:0.3;fill:url(#SVGID_4_);enable-background:new    ;}
	.st5{opacity:0.3;fill:url(#SVGID_5_);enable-background:new    ;}
	.st6{fill:#B5179E;}
	.st7{fill:#F72585;}
	.st8{fill:url(#SVGID_6_);}
	.st9{fill:url(#SVGID_7_);}
	.st10{opacity:0.1;fill:url(#SVGID_8_);enable-background:new    ;}
	.st11{opacity:0.2;fill:url(#SVGID_9_);enable-background:new    ;}
	.st12{opacity:0.3;fill:url(#SVGID_10_);enable-background:new    ;}
	.st13{opacity:0.1;fill:url(#SVGID_11_);enable-background:new    ;}
	.st14{opacity:0.2;fill:url(#SVGID_12_);enable-background:new    ;}
	.st15{opacity:0.3;fill:url(#SVGID_13_);enable-background:new    ;}
	.st16{opacity:0.1;fill:url(#SVGID_14_);enable-background:new    ;}
	.st17{opacity:0.1;fill:url(#SVGID_15_);enable-background:new    ;}
	.st18{fill:#FFFFFF;}
</style>
<g>
	<g>
		<path class="st0" d="M171.2,1858.6c-15,13.3-37.2,19.9-66.6,19.9H46.5v119.3H29.1v-271.9h75.5c29.9,0,52.3,6.9,67,20.7
			c14.7,13.8,22.1,32.5,22.1,56C193.7,1826.6,186.2,1845.3,171.2,1858.6z M176.2,1802.6c0-19.9-5.7-35-17-45.5
			c-11.4-10.5-29.6-15.7-54.6-15.7H46.5V1863h58.1C152.3,1863,176.2,1842.9,176.2,1802.6z"/>
		<path class="st0" d="M624.3,1928.1h-129l-25.9,69.7h-19l99.9-265.7h19.4l99.5,265.7h-19L624.3,1928.1z M618.9,1913.4L560,1755
			l-59.3,158.4H618.9z"/>
		<path class="st0" d="M1084.8,1858.6c-15,13.3-37.2,19.9-66.6,19.9h-58.1v119.3h-17.4v-271.9h75.5c29.9,0,52.3,6.9,67,20.7
			c14.7,13.8,22.1,32.5,22.1,56C1107.3,1826.6,1099.8,1845.3,1084.8,1858.6z M1089.9,1802.6c0-19.9-5.7-35-17-45.5
			c-11.4-10.5-29.6-15.7-54.6-15.7h-58.1V1863h58.1C1066,1863,1089.9,1842.9,1089.9,1802.6z"/>
		<path class="st0" d="M1401.2,1740.7v113.5h108.4v14.7h-108.4v114.3h120.1v14.7h-137.5V1726h137.5v14.7L1401.2,1740.7
			L1401.2,1740.7z"/>
		<path class="st0" d="M1950.4,1997.8l-69.7-115.8h-1.5h-58.1v115.8h-17.4v-271.9h74.7c30.2,0,52.9,7.1,68,21.3
			c15.1,14.2,22.7,33.1,22.7,56.5c0,20.9-5.9,38.1-17.6,51.7c-11.8,13.6-28.9,21.9-51.3,25l71.3,117.4H1950.4z M1821.1,1867.3h58.1
			c24,0,42-5.8,53.8-17.4c11.9-11.6,17.8-27,17.8-46.1c0-41.6-24.1-62.4-72.4-62.4h-57.3V1867.3z"/>
	</g>
	<g id="Logo_2_">
		
			<linearGradient id="SVGID_1_" gradientUnits="userSpaceOnUse" x1="1554.5" y1="1725.3" x2="1554.5" y2="485.2" gradientTransform="matrix(1 0 0 -1 0 2000)">
			<stop  offset="0" style="stop-color:#B5179E"/>
			<stop  offset="0.6536" style="stop-color:#3A0CA3"/>
		</linearGradient>
		<path class="st1" d="M1418.7,274.7h271.6v1240.1h-271.6V274.7z"/>
		
			<linearGradient id="SVGID_2_" gradientUnits="userSpaceOnUse" x1="-82.5165" y1="1310.1415" x2="1016.3683" y2="1015.6962" gradientTransform="matrix(1 0 0 -1 0 2000)">
			<stop  offset="0" style="stop-color:#B5179E"/>
			<stop  offset="0.8324" style="stop-color:#3A0CA3"/>
		</linearGradient>
		<path class="st2" d="M691.4,273.3v784.9c-105.6-15.8-238.3-3.7-390.7,39.4V273.3H29.1L28,1131.5c0,82.8,20.1,153.1,60.4,210.8
			c40.2,57.7,95,100.9,164.4,129.5c69.3,28.6,148,43,235.9,43s167.6-14.5,239-43.6c71.5-29.1,128.4-72.2,170.7-129.5
			s63.5-127.3,63.5-210.1l1.1-858.2H691.4V273.3z"/>
		
			<linearGradient id="SVGID_3_" gradientUnits="userSpaceOnUse" x1="692.8" y1="1105.25" x2="1690.3" y2="1105.25" gradientTransform="matrix(1 0 0 -1 0 2000)">
			<stop  offset="0" style="stop-color:#F72585"/>
			<stop  offset="0.8771" style="stop-color:#3F37C9"/>
		</linearGradient>
		<polygon class="st3" points="1690.3,1514.8 964.4,274.7 692.8,274.7 1418.7,1514.8 		"/>
		
			<linearGradient id="SVGID_4_" gradientUnits="userSpaceOnUse" x1="1440.9501" y1="873.3" x2="1440.9501" y2="485.2" gradientTransform="matrix(1 0 0 -1 0 2000)">
			<stop  offset="0.3408" style="stop-color:#000000"/>
			<stop  offset="0.9056" style="stop-color:#000000;stop-opacity:0.1431"/>
			<stop  offset="1" style="stop-color:#000000;stop-opacity:0"/>
		</linearGradient>
		<polygon class="st4" points="1191.6,1126.7 1690.3,1183.7 1690.3,1514.8 1418.7,1514.8 		"/>
		
			<linearGradient id="SVGID_5_" gradientUnits="userSpaceOnUse" x1="1554.4999" y1="949.2" x2="1554.4999" y2="1725.2999" gradientTransform="matrix(1 0 0 -1 0 2000)">
			<stop  offset="0.3408" style="stop-color:#000000"/>
			<stop  offset="0.9047" style="stop-color:#000000;stop-opacity:0.1446"/>
			<stop  offset="1" style="stop-color:#000000;stop-opacity:0"/>
		</linearGradient>
		<path class="st5" d="M1418.7,274.7v776.1c0,0,35.3-386.7,271.6-571.4V274.7H1418.7z"/>
		<g>
			<g>
				<path class="st6" d="M1653,1295.3l215.8,4.9c-62.3-60.3-130.9-109.4-203.6-149.1l-232.4-5.2
					C1523.7,1189.5,1595.9,1241.7,1653,1295.3z"/>
			</g>
			<g>
				<path class="st7" d="M1767.8,1429.8l215.2,4.8c-34.9-50-73.2-94.8-114.2-134.6l-215.8-4.9
					C1701.4,1340.6,1738.9,1386.9,1767.8,1429.8z"/>
			</g>
			<g>
				<path class="st6" d="M1767.8,1429.8l-221.8-5c31.8,49.2,52.1,94.2,64.8,128.3l226.5,5.1
					C1823.3,1524.3,1801.2,1479.2,1767.8,1429.8z"/>
			</g>
			<g>
				<path class="st7" d="M1432.9,1145.8l-236.8-5.3c99.6,41.5,176.9,94.4,236.6,149.8l220.2,5
					C1595.9,1241.7,1523.7,1189.5,1432.9,1145.8z"/>
			</g>
			<g>
				<path class="st7" d="M1374.8,1547.8c17.8,38.5,25.4,63,25.4,63l229.3,5.3c0,0-4.5-24.4-18.7-63L1374.8,1547.8z"/>
			</g>
			<g>
				<path class="st6" d="M1432.8,1290.3l-245.3-5.5c46.6,44.6,84.1,91.1,114,134.6l244.6,5.5
					C1518,1381.6,1481.2,1335.1,1432.8,1290.3z"/>
			</g>
			<g>
				
					<linearGradient id="SVGID_6_" gradientUnits="userSpaceOnUse" x1="983.05" y1="999.4829" x2="983.05" y2="849.0001" gradientTransform="matrix(1 0 0 -1 0 2000)">
					<stop  offset="0" style="stop-color:#F72585"/>
					<stop  offset="0.6872" style="stop-color:#B5179E"/>
				</linearGradient>
				<path class="st8" d="M300.7,1097.5c15.2-3.4,48-8.9,62.8-11.8c73.5-14.3,142.1-21.9,206.1-23.8c159.3-4.9,290.3,25.2,397.2,73.4
					l229.4,5.2l236.8,5.3l232.4,5.2C1109.5,847.1,300.7,1097.5,300.7,1097.5z"/>
			</g>
		</g>
		<g>
			<g>
				<path class="st6" d="M1550.2,154l132.3-12.9c28-33.2,53.9-58.1,74.9-76l-155.6,15.2C1587.1,97.6,1569.1,121.7,1550.2,154z"/>
			</g>
			<g>
				<path class="st6" d="M1638.8,43.7l-171.3,16.7c0,0-11.9,5.5-26.3,35.6l160.7-15.7C1623.9,54.4,1638.8,43.7,1638.8,43.7z"/>
			</g>
			<g>
				<path class="st7" d="M1511,231.3l112.8-11c19.9-30.5,39.7-56.8,58.6-79.2L1550.2,154C1537.3,175.9,1524.1,201.5,1511,231.3z"/>
			</g>
			<g>
				<path class="st7" d="M1927.3,48.5c17.4-13,35.4-25.7,54.1-38.3L1810.1,27c0,0-20.8,11.1-52.7,38.1L1927.3,48.5z"/>
			</g>
			<g>
				<path class="st6" d="M1550.2,154l-132.8,13c-5,20.7-9.6,45.4-13.7,74.8l107.3-10.5C1524.1,201.5,1537.3,175.9,1550.2,154z"/>
			</g>
			<g>
				<path class="st6" d="M1545,367.7l86.2-8.4c33.8-50.9,73.1-101.8,118.8-151.4l-126.1,12.3C1597,261.3,1570.1,310.1,1545,367.7z"
					/>
			</g>
			<g>
				<path class="st7" d="M1511,231.3l-107.3,10.5c-5.3,38.4-9.6,84.8-12,141l69.9-6.8C1476.4,319.4,1493.5,271.5,1511,231.3z"/>
			</g>
			<g>
				
					<linearGradient id="SVGID_7_" gradientUnits="userSpaceOnUse" x1="1388.5912" y1="1295" x2="1631.2" y2="1295" gradientTransform="matrix(1 0 0 -1 0 2000)">
					<stop  offset="0" style="stop-color:#F72585"/>
					<stop  offset="0.5475" style="stop-color:#B5179E"/>
				</linearGradient>
				<path class="st9" d="M1631.2,359.3l-86.2,8.4l-83.4,8.2l-69.9,6.8c-6.3,145.5-5.6,363.6,27,668c0,0,0-22.8,2-62.6
					C1426.5,873.7,1463.7,611.6,1631.2,359.3z"/>
			</g>
		</g>
		
			<linearGradient id="SVGID_8_" gradientUnits="userSpaceOnUse" x1="436.4" y1="485.1001" x2="436.4" y2="835.4001" gradientTransform="matrix(1 0 0 -1 0 2000)">
			<stop  offset="0.3408" style="stop-color:#FFFFFF"/>
			<stop  offset="0.9321" style="stop-color:#FFFFFF;stop-opacity:0.103"/>
			<stop  offset="1" style="stop-color:#FFFFFF;stop-opacity:0"/>
		</linearGradient>
		<path class="st10" d="M727.6,1471.2c44.3-18,83-41.5,116.1-70.3c-549.4,229.6-694.8-236.3-694.8-236.3H29.1
			c4.7,68.6,24.4,127.9,59.2,177.8c40.2,57.7,95,100.9,164.4,129.5c69.3,28.6,148,43,235.9,43
			C576.4,1514.8,656.1,1500.2,727.6,1471.2z"/>
		
			<linearGradient id="SVGID_9_" gradientUnits="userSpaceOnUse" x1="-122.8932" y1="1463.4398" x2="247.8932" y2="1249.3663" gradientTransform="matrix(1 0 0 -1 0 2000)">
			<stop  offset="0.3408" style="stop-color:#FFFFFF"/>
			<stop  offset="1" style="stop-color:#FFFFFF;stop-opacity:0"/>
		</linearGradient>
		<path class="st11" d="M300.7,273.3c0,0-272.7,197.9-272.7,858.2l1.1-858.2H300.7z"/>
		
			<linearGradient id="SVGID_10_" gradientUnits="userSpaceOnUse" x1="664.6415" y1="1709.0427" x2="993.0298" y2="1140.2573" gradientTransform="matrix(1 0 0 -1 0 2000)">
			<stop  offset="0.3408" style="stop-color:#000000"/>
			<stop  offset="0.9321" style="stop-color:#000000;stop-opacity:0.103"/>
			<stop  offset="1" style="stop-color:#000000;stop-opacity:0"/>
		</linearGradient>
		<polygon class="st12" points="692.8,274.7 963,736.3 962.1,877.6 		"/>
		
			<linearGradient id="SVGID_11_" gradientUnits="userSpaceOnUse" x1="691.4" y1="1356.3" x2="801" y2="1356.3" gradientTransform="matrix(1 0 0 -1 0 2000)">
			<stop  offset="0.3408" style="stop-color:#FFFFFF"/>
			<stop  offset="0.9321" style="stop-color:#FFFFFF;stop-opacity:0.103"/>
			<stop  offset="1" style="stop-color:#FFFFFF;stop-opacity:0"/>
		</linearGradient>
		<path class="st13" d="M692.8,274.7L801,517c0,0-93,76.5-109.6,495.7L692.8,274.7z"/>
		
			<linearGradient id="SVGID_12_" gradientUnits="userSpaceOnUse" x1="712.85" y1="1745.35" x2="1078.75" y2="1379.4501" gradientTransform="matrix(1 0 0 -1 0 2000)">
			<stop  offset="0.3408" style="stop-color:#FFFFFF"/>
			<stop  offset="0.9321" style="stop-color:#FFFFFF;stop-opacity:0.103"/>
			<stop  offset="1" style="stop-color:#FFFFFF;stop-opacity:0"/>
		</linearGradient>
		<path class="st14" d="M964.4,274.7H692.8L963,736.3C963,736.3,748.7,318.6,964.4,274.7z"/>
		
			<linearGradient id="SVGID_13_" gradientUnits="userSpaceOnUse" x1="318.5975" y1="969.8645" x2="958.1823" y2="798.4883" gradientTransform="matrix(1 0 0 -1 0 2000)">
			<stop  offset="0.3408" style="stop-color:#000000"/>
			<stop  offset="0.9321" style="stop-color:#000000;stop-opacity:0.103"/>
			<stop  offset="1" style="stop-color:#000000;stop-opacity:0"/>
		</linearGradient>
		<path class="st15" d="M300.7,1097.7c-1.1,0.2,2.3-0.5,3.6-0.8c0.4-0.1,0.8-0.2,1.2-0.2c1-0.2,2-0.4,3-0.6c0.4-0.1,0.9-0.2,1.3-0.3
			c1.3-0.3,2.6-0.5,3.9-0.8c0.2,0,0.3-0.1,0.5-0.1c8.5-1.6,18.5-3.4,27.7-5.1c5.3-1,10.3-1.9,14.7-2.7c0.3-0.1,0.5-0.1,0.8-0.2
			c0.8-0.2,1.6-0.3,2.4-0.4c0.9-0.2,1.8-0.3,2.7-0.5c0.3-0.1,0.6-0.1,0.8-0.2c70.5-13.7,140.9-15.5,206.5-17.4
			c143.7-4.4,275.6,19.8,392,71.8c-0.8,43.9-7.6,84.1-20.6,120.7C941.2,1261,691.4,1012.7,300.7,1097.7z"/>
		
			<linearGradient id="SVGID_14_" gradientUnits="userSpaceOnUse" x1="1278.375" y1="1491.975" x2="1573.425" y2="1196.9249" gradientTransform="matrix(1 0 0 -1 0 2000)">
			<stop  offset="0.3408" style="stop-color:#FFFFFF"/>
			<stop  offset="0.9321" style="stop-color:#FFFFFF;stop-opacity:0.103"/>
			<stop  offset="1" style="stop-color:#FFFFFF;stop-opacity:0"/>
		</linearGradient>
		<path class="st16" d="M1466.6,381.8l-68.7,6.7c-7.1,170.9-0.9,362.9,18.3,571.8C1416.2,960.3,1399,587.6,1466.6,381.8z"/>
		
			<linearGradient id="SVGID_15_" gradientUnits="userSpaceOnUse" x1="1083.55" y1="992.8657" x2="1083.55" y2="856" gradientTransform="matrix(1 0 0 -1 0 2000)">
			<stop  offset="0.3408" style="stop-color:#FFFFFF"/>
			<stop  offset="0.91" style="stop-color:#FFFFFF;stop-opacity:0.1365"/>
			<stop  offset="1" style="stop-color:#FFFFFF;stop-opacity:0"/>
		</linearGradient>
		<path class="st17" d="M775.2,1016.7c-91.6,8.3-175.6,21-246.5,34.2c146.2-24.8,529.3-66.6,905.9,88.5l203.8,4.6
			C1357,1000.1,1015.3,994.9,775.2,1016.7z"/>
	</g>
	<path class="st18" d="M1988.3,1431c-31.3-44.8-66.1-86.5-103.5-124.1h0.3l-11.8-11.4l-1.8-1.8h-0.1
		c-53.5-51.5-114.2-97.1-180.9-135.7h0.9l-23.1-12.6l-1.4-0.8h-0.1c-76.9-41.9-158.6-73-241.8-95.7c0-6.1,0.3-27.4,2-60.4
		c4-78.8,31-356.8,209.4-625.6c35.1-52.9,74.9-103.6,118.2-150.6l11.4-12.4l-129.3,12.6c16.1-23.9,33.1-46.5,50.6-67.3l0.3-0.3
		c23.4-27.8,47.8-52.5,72.4-73.6l169.6-16.6l1.4-1.1c17.5-13,35.6-25.9,53.8-38.1l21.1-14.2l-196.6,19.2l-1.3,0.1l-1.1,0.6
		c-2.2,1.2-22.1,12.3-52.2,37.6l-137.2,13.4c14.9-15.9,24.5-23.1,24.9-23.4l19-13.9L1465.6,54l-1,0.5c-1.4,0.7-14.4,7.4-29.4,38.6
		l-5,10.3L1587,88.1c-14.1,17.8-27.8,37.7-40.8,59.7l-134,13.2l-1.1,4.5c-5,20.9-9.4,44.6-13.1,70.4h-0.1l-0.7,5l-1.1,8.1h0.1
		c-5,38-8.6,80.9-10.7,127.9l-0.2,5.6l-0.3,7.4c-7.9,193.7,1.1,414.1,26.7,655.4c-224.8-58.9-459.1-57.5-637.7-41.4
		c-269.2,24.4-471.1,86.2-473.2,86.9l-0.1,6.8c9.6-2.2,26.4-5.2,41.2-7.8c8.4-1.5,16-2.9,21.4-3.9c70.5-13.7,140.9-15.5,206.5-17.4
		c144.7-4.5,277.4,20.1,394.4,72.9l1.2,0.5l229.4,5.2c83.6,35,157.6,81,220.7,136.6l-244.3-5.5l11.9,11.4
		c41.6,39.8,79.6,84.8,113.1,133.6l1.9,2.7l244.4,5.5c23.8,37.2,43.6,76,58.9,115.3l-236.7-5.3l4.3,9.3c17.4,37.6,25,61.9,25.1,62.2
		l1.4,4.4l241.8,5.6l-1.4-7.8c-0.2-0.9-4-21.7-15.8-55.2l227,5.1l-3.7-9.1c-16.4-39.7-38.2-80.7-63.3-119.2l215.7,4.9L1988.3,1431z
		 M1812,33.2L1957.1,19c-10.9,7.6-21.7,15.4-32.3,23.2L1778,56.6C1796.1,42.6,1808.4,35.3,1812,33.2z M1852.4,1293.4l-195.7-4.5
		h-1.1c-7.2-6.7-14.6-13.4-22.1-19.9c-1.6-1.4-3.3-2.7-4.9-4.1c-6.3-5.4-12.7-10.7-19.1-15.9c-2.9-2.3-5.9-4.6-8.8-6.9
		c-5.3-4.2-10.7-8.3-16.2-12.4c-3.3-2.5-6.7-4.9-10.1-7.3c-5.2-3.8-10.5-7.5-15.8-11.2c-3.6-2.5-7.2-4.9-10.8-7.3
		c-5.3-3.5-10.7-7-16.1-10.5c-3.7-2.3-7.4-4.7-11.1-6.9c-5.6-3.4-11.2-6.8-16.9-10.1c-3.6-2.1-7.3-4.3-11-6.4
		c-6.1-3.5-12.3-6.8-18.4-10.1c-3.4-1.8-6.7-3.7-10.1-5.5c-1-0.5-1.9-1-2.8-1.5l202.2,4.6
		C1733.2,1195.7,1796.6,1241.4,1852.4,1293.4z M1734,215.9c-38.7,43.3-74.5,89.4-106.5,137.3l-15.7,1.5l-56.6,5.5
		c21.5-48,45.8-93,72.3-133.9L1734,215.9z M1540.6,361.7l-70.4,6.9c12.8-47.1,28-91.2,45.3-131.3l95.9-9.4
		C1585.4,269,1561.6,313.9,1540.6,361.7z M1452.3,88.4c8.5-14.8,15.2-20.2,17.2-21.7L1619.4,52c-5.7,5.5-12.7,12.8-20.8,22.1
		L1452.3,88.4z M1605,86.5l132.5-13l0.6-0.1c-20,18.3-39.8,38.9-59,61.5l-117,11.4C1576,124,1590.3,103.9,1605,86.5z M1545.5,175.3
		c2.8-5.2,5.7-10.2,8.6-15.3l113.5-11.1c-16.4,20.5-32.3,42.3-47.4,65.3l-98.7,9.6c0.9-2,1.8-4,2.7-6c1.1-2.3,2.1-4.6,3.2-6.9
		c2-4.2,4-8.4,6.1-12.5c0.9-1.9,1.8-3.7,2.8-5.6c2.9-5.8,5.9-11.5,9-17.1C1545.4,175.6,1545.5,175.4,1545.5,175.3z M1422.6,172.9
		l115.7-11.3h0.1c-0.9,1.5-1.7,3.2-2.6,4.7c-1.1,2-2.1,3.9-3.2,5.9c-2.2,4.1-4.3,8.2-6.5,12.3c-1,1.9-1.9,3.8-2.9,5.7
		c-2.7,5.5-5.4,11-8.1,16.6c-0.3,0.6-0.6,1.1-0.8,1.7c-2.6,5.5-5.2,11.1-7.7,16.8l-0.9,0.1l-94.5,9.2
		C1414.5,212.2,1418.3,191.5,1422.6,172.9z M1409.4,247.7l17.5-1.7l74-7.2c-17,40.3-31.9,84.3-44.4,131.2l-58,5.7
		C1400.6,328.5,1404.3,285.5,1409.4,247.7z M1397.9,388.6l54.6-5.3l14.2-1.4l82.5-8.1l69.3-6.8
		c-157.2,242.6-193.8,490.4-202.3,593.4C1397,751.5,1390.8,559.5,1397.9,388.6z M968.3,1128.9c-118.5-53.2-252.7-77.9-398.9-73.4
		c-33.4,1-67.7,3.6-102.6,7.6c81.6-17.1,188.5-35.5,308.4-46.4c240.1-21.8,581.8-16.6,863.1,127.3l-38.2-0.9l-165.6-3.7l-57.1-1.3
		L968.3,1128.9z M1228.5,1147.6l202.9,4.6c9.7,4.7,19.3,9.5,28.8,14.5c2.4,1.3,4.8,2.6,7.2,3.9c7.2,3.9,14.4,7.8,21.4,11.8
		c3.6,2,7.1,4.2,10.6,6.3c5.8,3.4,11.5,6.8,17.2,10.3c3.8,2.4,7.5,4.8,11.3,7.2c5.3,3.4,10.5,6.8,15.7,10.2
		c3.8,2.6,7.6,5.2,11.4,7.9c5,3.5,9.9,6.9,14.8,10.5c3.8,2.7,7.4,5.5,11.1,8.3c4.8,3.6,9.5,7.2,14.2,10.9c3.6,2.9,7.2,5.8,10.8,8.7
		c4.6,3.7,9.1,7.5,13.6,11.3c3.5,3,7,6,10.4,9c2.1,1.8,4.1,3.7,6.1,5.5l-200.5-4.5C1376.1,1229.3,1306.6,1183.6,1228.5,1147.6z
		 M1304.9,1413c-30.3-43.9-64.4-84.6-101.3-121.4l226.6,5.1c39.3,36.7,74.1,77.5,103.7,121.5L1304.9,1413z M1449.2,1297.1l201.2,4.5
		c39.2,37,74.5,77.9,105,121.5l-205.9-4.6C1520.9,1374.7,1487.2,1334,1449.2,1297.1z M1621.6,1609.5l-216.7-5c-2.7-7.8-9-25.4-20-50
		l221.4,5C1614.6,1582.5,1619.3,1600.1,1621.6,1609.5z M1827.5,1551.5l-212.2-4.7c-14.9-39.3-34.2-78-57.4-115.3l206.5,4.6
		C1794.8,1481.5,1815.1,1522.5,1827.5,1551.5z M1771.3,1423.5c-29.6-43.5-63.8-84.2-101.9-121.4l196.8,4.4
		c37.6,36.6,72.6,77.5,104.3,121.5L1771.3,1423.5z"/>
</g>
</svg>
